<?xml version="1.0" encoding="utf-8"?>
<!-- Generator: Adobe Illustrator 24.0.1, SVG Export Plug-In . SVG Version: 6.00 Build 0)  -->
<svg version="1.1" id="Layer_1" xmlns="http://www.w3.org/2000/svg" xmlns:xlink="http://www.w3.org/1999/xlink" x="0px" y="0px"
	 viewBox="0 0 150 30" width="150" height="30" style="enable-background:new 0 0 150 30;" xml:space="preserve">
<style type="text/css">
	.st0{fill-rule:evenodd;clip-rule:evenodd;fill:#FFFFFF;}
</style>
<g id="Layer_1">
	<g>
		<path class="st0" d="M44.8,8.9h2.8v12.5h-2.8V16h-4.7v5.3h-2.8V8.9h2.8v4.8h4.7V8.9z M54.2,15c0,0.6,0.1,1.2,0.2,1.7
			c0.1,0.5,0.4,0.9,0.6,1.3c0.3,0.4,0.6,0.6,1,0.8c0.4,0.2,0.9,0.3,1.4,0.3s1-0.1,1.4-0.3c0.4-0.2,0.8-0.5,1-0.8s0.5-0.8,0.6-1.3
			c0.2-0.5,0.2-1.1,0.2-1.7c0-0.6-0.1-1.1-0.2-1.7c-0.1-0.5-0.3-0.9-0.6-1.3c-0.3-0.4-0.6-0.6-1-0.8C58.5,11,58,10.9,57.5,11
			c-0.5,0-1,0.1-1.4,0.3s-0.8,0.5-1,0.8c-0.3,0.4-0.5,0.8-0.6,1.3C54.3,13.9,54.2,14.4,54.2,15z M63.7,15c0,1.1-0.2,2-0.5,2.8
			s-0.7,1.5-1.3,2c-0.6,0.6-1.2,1-2,1.2c-0.8,0.3-1.6,0.4-2.4,0.4c-0.8,0-1.6-0.1-2.4-0.4c-0.7-0.3-1.4-0.7-2-1.2s-1-1.2-1.3-2
			S51.3,16,51.3,15c0-1.1,0.2-2,0.5-2.8s0.8-1.5,1.3-2.1c0.6-0.5,1.2-1,2-1.2c0.8-0.3,1.5-0.4,2.4-0.4c0.8,0,1.6,0.1,2.4,0.4
			c0.8,0.3,1.4,0.7,2,1.2c0.6,0.6,1,1.2,1.3,2C63.5,13,63.7,13.9,63.7,15z M70.7,19.1c0.4,0,0.7,0,1-0.1s0.5-0.2,0.6-0.3
			c0.1-0.1,0.3-0.2,0.3-0.4c0.1-0.2,0.1-0.3,0.1-0.5c0-0.4-0.2-0.7-0.6-1s-1-0.6-2-0.9c-0.4-0.1-0.8-0.3-1.2-0.5
			c-0.4-0.2-0.8-0.4-1.1-0.7c-0.3-0.3-0.6-0.6-0.8-1c-0.2-0.4-0.3-0.9-0.3-1.5s0.1-1.1,0.3-1.6c0.2-0.5,0.5-0.9,0.9-1.2
			s0.9-0.6,1.4-0.8c0.6-0.2,1.2-0.3,1.9-0.3c0.8,0,1.6,0.1,2.2,0.3s1.1,0.4,1.5,0.6l-0.8,2.2c-0.3-0.2-0.7-0.3-1.2-0.5
			c-0.4-0.1-0.9-0.2-1.5-0.2c-0.7,0-1.1,0.1-1.4,0.3s-0.4,0.5-0.4,0.9c0,0.2,0.1,0.4,0.2,0.6s0.3,0.3,0.5,0.4
			c0.2,0.1,0.4,0.2,0.7,0.3c0.3,0.1,0.5,0.2,0.8,0.3c0.6,0.2,1.2,0.5,1.7,0.7c0.4,0.2,0.8,0.5,1.2,0.8c0.3,0.3,0.6,0.7,0.7,1.1
			c0.2,0.4,0.2,0.9,0.2,1.5c0,1.2-0.4,2.1-1.2,2.7c-0.8,0.6-2,1-3.7,1c-0.5,0-1,0-1.5-0.1c-0.4-0.1-0.8-0.1-1.2-0.2
			c-0.3-0.1-0.6-0.2-0.9-0.3c-0.2-0.1-0.4-0.2-0.6-0.3l0.8-2.2c0.4,0.2,0.8,0.4,1.4,0.5C69.3,19.1,69.9,19.1,70.7,19.1 M87.9,8.8
			v2.4h-3.7v10.1h-2.8V11.2h-3.7V8.8H87.9z M91,21.3h2.8V8.8H91V21.3z M106.3,21.3c-0.8-1.4-1.7-2.9-2.6-4.2c-0.9-1.4-1.9-2.7-3-4
			v8.2h-2.8V8.8h2.3c0.4,0.4,0.8,0.9,1.3,1.5s1,1.2,1.5,1.9s1,1.4,1.5,2c0.5,0.7,0.9,1.4,1.4,2V8.8h2.8v12.5H106.3 M118.8,10.9
			c-1.3,0-2.2,0.4-2.8,1.1s-0.9,1.7-0.9,3c0,0.6,0.1,1.2,0.2,1.7s0.4,0.9,0.6,1.3c0.3,0.4,0.6,0.6,1.1,0.8c0.4,0.2,0.9,0.3,1.5,0.3
			c0.3,0,0.6,0,0.8,0c0.2,0,0.4,0,0.6-0.1v-4.3h2.8v6.2c-0.3,0.1-0.9,0.3-1.6,0.4s-1.7,0.2-2.7,0.2c-0.9,0-1.8-0.1-2.5-0.4
			s-1.4-0.7-1.9-1.3c-0.5-0.6-1-1.2-1.2-2c-0.3-0.8-0.4-1.7-0.4-2.8c0-1,0.2-2,0.5-2.8s0.8-1.5,1.3-2.1c0.6-0.6,1.2-1,2-1.3
			s1.6-0.4,2.4-0.4c0.9,0,1.9,0.1,2.8,0.4c0.5,0.1,0.9,0.3,1.3,0.6l-0.8,2.3c-0.4-0.2-0.9-0.4-1.3-0.5
			C119.9,11,119.4,10.9,118.8,10.9 M126.6,21.3V8.8h8.4v2.4h-5.6v2.5h5V16h-5v3h6v2.4L126.6,21.3z M142.6,11c-0.2,0-0.4,0-0.5,0
			h-0.5v3.4h0.8c1,0,1.8-0.1,2.3-0.4c0.5-0.3,0.7-0.7,0.7-1.4c0-0.6-0.2-1.1-0.7-1.3C144.1,11.2,143.5,11,142.6,11 M142.4,8.6
			c1.9,0,3.3,0.3,4.3,1s1.5,1.7,1.5,3.1c0,0.9-0.2,1.6-0.6,2.1c-0.4,0.5-1,1-1.7,1.3c0.3,0.3,0.5,0.7,0.8,1.1s0.5,0.8,0.8,1.3
			c0.3,0.4,0.5,0.9,0.8,1.4c0.2,0.5,0.5,0.9,0.7,1.4h-3.1c-0.2-0.4-0.5-0.8-0.7-1.2c-0.4-0.8-0.9-1.6-1.4-2.4
			c-0.2-0.3-0.5-0.7-0.7-1h-1.4v4.6h-2.8V9c0.6-0.1,1.2-0.2,1.9-0.3C141.3,8.7,141.9,8.6,142.4,8.6 M0,14V0l7,3.8v6.3h9.3l7.2,3.9H0
			z M18.3,9V0l7.2,3.7v9.5L18.3,9L18.3,9z M18.3,26.1v-6.3H8.9l-7.3-4L25.5,16v14L18.3,26.1L18.3,26.1z M0,26.1v-9.2L7,21v8.7
			L0,26.1z"/>
	</g>
	<g>
		<path class="st0" d="M44.8,8.9h2.8v12.5h-2.8V16h-4.7v5.3h-2.8V8.9h2.8v4.8h4.7V8.9z M54.2,15c0,0.6,0.1,1.2,0.2,1.7
			c0.1,0.5,0.4,0.9,0.6,1.3c0.3,0.4,0.6,0.6,1,0.8c0.4,0.2,0.9,0.3,1.4,0.3s1-0.1,1.4-0.3c0.4-0.2,0.8-0.5,1-0.8s0.5-0.8,0.6-1.3
			c0.2-0.5,0.2-1.1,0.2-1.7c0-0.6-0.1-1.1-0.2-1.7c-0.1-0.5-0.3-0.9-0.6-1.3c-0.3-0.4-0.6-0.6-1-0.8C58.5,11,58,10.9,57.5,11
			c-0.5,0-1,0.1-1.4,0.3s-0.8,0.5-1,0.8c-0.3,0.4-0.5,0.8-0.6,1.3C54.3,13.9,54.2,14.4,54.2,15z M63.7,15c0,1.1-0.2,2-0.5,2.8
			s-0.7,1.5-1.3,2c-0.6,0.6-1.2,1-2,1.2c-0.8,0.3-1.6,0.4-2.4,0.4c-0.8,0-1.6-0.1-2.4-0.4c-0.7-0.3-1.4-0.7-2-1.2s-1-1.2-1.3-2
			S51.3,16,51.3,15c0-1.1,0.2-2,0.5-2.8s0.8-1.5,1.3-2.1c0.6-0.5,1.2-1,2-1.2c0.8-0.3,1.5-0.4,2.4-0.4c0.8,0,1.6,0.1,2.4,0.4
			c0.8,0.3,1.4,0.7,2,1.2c0.6,0.6,1,1.2,1.3,2C63.5,13,63.7,13.9,63.7,15z M70.7,19.1c0.4,0,0.7,0,1-0.1s0.5-0.2,0.6-0.3
			c0.1-0.1,0.3-0.2,0.3-0.4c0.1-0.2,0.1-0.3,0.1-0.5c0-0.4-0.2-0.7-0.6-1s-1-0.6-2-0.9c-0.4-0.1-0.8-0.3-1.2-0.5
			c-0.4-0.2-0.8-0.4-1.1-0.7c-0.3-0.3-0.6-0.6-0.8-1c-0.2-0.4-0.3-0.9-0.3-1.5s0.1-1.1,0.3-1.6c0.2-0.5,0.5-0.9,0.9-1.2
			s0.9-0.6,1.4-0.8c0.6-0.2,1.2-0.3,1.9-0.3c0.8,0,1.6,0.1,2.2,0.3s1.1,0.4,1.5,0.6l-0.8,2.2c-0.3-0.2-0.7-0.3-1.2-0.5
			c-0.4-0.1-0.9-0.2-1.5-0.2c-0.7,0-1.1,0.1-1.4,0.3s-0.4,0.5-0.4,0.9c0,0.2,0.1,0.4,0.2,0.6s0.3,0.3,0.5,0.4
			c0.2,0.1,0.4,0.2,0.7,0.3c0.3,0.1,0.5,0.2,0.8,0.3c0.6,0.2,1.2,0.5,1.7,0.7c0.4,0.2,0.8,0.5,1.2,0.8c0.3,0.3,0.6,0.7,0.7,1.1
			c0.2,0.4,0.2,0.9,0.2,1.5c0,1.2-0.4,2.1-1.2,2.7c-0.8,0.6-2,1-3.7,1c-0.5,0-1,0-1.5-0.1c-0.4-0.1-0.8-0.1-1.2-0.2
			c-0.3-0.1-0.6-0.2-0.9-0.3c-0.2-0.1-0.4-0.2-0.6-0.3l0.8-2.2c0.4,0.2,0.8,0.4,1.4,0.5C69.3,19.1,69.9,19.1,70.7,19.1 M87.9,8.8
			v2.4h-3.7v10.1h-2.8V11.2h-3.7V8.8H87.9z M91,21.3h2.8V8.8H91V21.3z M106.3,21.3c-0.8-1.4-1.7-2.9-2.6-4.2c-0.9-1.4-1.9-2.7-3-4
			v8.2h-2.8V8.8h2.3c0.4,0.4,0.8,0.9,1.3,1.5s1,1.2,1.5,1.9s1,1.4,1.5,2c0.5,0.7,0.9,1.4,1.4,2V8.8h2.8v12.5H106.3 M118.8,10.9
			c-1.3,0-2.2,0.4-2.8,1.1s-0.9,1.7-0.9,3c0,0.6,0.1,1.2,0.2,1.7s0.4,0.9,0.6,1.3c0.3,0.4,0.6,0.6,1.1,0.8c0.4,0.2,0.9,0.3,1.5,0.3
			c0.3,0,0.6,0,0.8,0c0.2,0,0.4,0,0.6-0.1v-4.3h2.8v6.2c-0.3,0.1-0.9,0.3-1.6,0.4s-1.7,0.2-2.7,0.2c-0.9,0-1.8-0.1-2.5-0.4
			s-1.4-0.7-1.9-1.3c-0.5-0.6-1-1.2-1.2-2c-0.3-0.8-0.4-1.7-0.4-2.8c0-1,0.2-2,0.5-2.8s0.8-1.5,1.3-2.1c0.6-0.6,1.2-1,2-1.3
			s1.6-0.4,2.4-0.4c0.9,0,1.9,0.1,2.8,0.4c0.5,0.1,0.9,0.3,1.3,0.6l-0.8,2.3c-0.4-0.2-0.9-0.4-1.3-0.5
			C119.9,11,119.4,10.9,118.8,10.9 M126.6,21.3V8.8h8.4v2.4h-5.6v2.5h5V16h-5v3h6v2.4L126.6,21.3z M142.6,11c-0.2,0-0.4,0-0.5,0
			h-0.5v3.4h0.8c1,0,1.8-0.1,2.3-0.4c0.5-0.3,0.7-0.7,0.7-1.4c0-0.6-0.2-1.1-0.7-1.3C144.1,11.2,143.5,11,142.6,11 M142.4,8.6
			c1.9,0,3.3,0.3,4.3,1s1.5,1.7,1.5,3.1c0,0.9-0.2,1.6-0.6,2.1c-0.4,0.5-1,1-1.7,1.3c0.3,0.3,0.5,0.7,0.8,1.1s0.5,0.8,0.8,1.3
			c0.3,0.4,0.5,0.9,0.8,1.4c0.2,0.5,0.5,0.9,0.7,1.4h-3.1c-0.2-0.4-0.5-0.8-0.7-1.2c-0.4-0.8-0.9-1.6-1.4-2.4
			c-0.2-0.3-0.5-0.7-0.7-1h-1.4v4.6h-2.8V9c0.6-0.1,1.2-0.2,1.9-0.3C141.3,8.7,141.9,8.6,142.4,8.6 M0,14V0l7,3.8v6.3h9.3l7.2,3.9H0
			z M18.3,9V0l7.2,3.7v9.5L18.3,9L18.3,9z M18.3,26.1v-6.3H8.9l-7.3-4L25.5,16v14L18.3,26.1L18.3,26.1z M0,26.1v-9.2L7,21v8.7
			L0,26.1z"/>
	</g>
</g>
</svg>
